<svg width="78" height="64" viewBox="0 0 78 64" fill="none" xmlns="http://www.w3.org/2000/svg">
<ellipse cx="45.4254" cy="32" rx="32.0152" ry="32" fill="#75E8E7"/>
<path d="M21.4968 58.4572V49.3877H17.6028C15.0842 49.3877 13.0422 47.3469 13.0422 44.8293V38.4409C12.9435 38.3422 12.8871 38.2859 12.7884 38.1872H5.6915C4.28688 38.1872 3.40884 36.6673 4.11127 35.4514L11.7093 22.2975C11.7758 22.1823 11.8286 22.0595 11.8679 21.9323C14.7632 12.5784 23.5179 5.79756 33.8462 5.8779C46.1891 5.97403 56.3036 16.018 56.4757 28.3543C56.5909 36.611 52.3141 43.8768 45.832 47.9703V58.4575H21.4968V58.4572Z" fill="white"/>
<path d="M45.8323 58.8107C45.6372 58.8107 45.4788 58.6523 45.4788 58.4573V47.9701C45.4788 47.8488 45.541 47.7362 45.6435 47.6714C52.315 43.4584 56.2323 36.239 56.1222 28.3591C55.9532 16.2522 45.9592 6.32559 33.8434 6.23135C33.7829 6.23087 33.7223 6.23064 33.6619 6.23064C28.7982 6.23064 24.1752 7.75711 20.2804 10.6508C16.4699 13.4825 13.6022 17.5259 12.2058 22.0367C12.1582 22.1908 12.0941 22.338 12.0158 22.4738L4.41758 35.6281C4.1517 36.0885 4.1517 36.6382 4.41758 37.0985C4.6837 37.5589 5.15985 37.8338 5.69162 37.8338H12.7883C12.8818 37.8338 12.9717 37.8708 13.0381 37.9373L13.2922 38.191C13.3585 38.2572 13.3957 38.3472 13.3957 38.441V44.8293C13.3957 47.1479 15.2831 49.0344 17.6027 49.0344H21.4967C21.6919 49.0344 21.8503 49.1927 21.8503 49.3878V58.4573C21.8503 58.6523 21.6919 58.8107 21.4967 58.8107C21.3016 58.8107 21.1432 58.6523 21.1432 58.4573V49.7412H17.603C14.8934 49.7412 12.6888 47.5378 12.6888 44.8293V38.5875L12.6421 38.5409H5.69162C4.9041 38.5409 4.19908 38.1338 3.8052 37.4522C3.41132 36.7703 3.41132 35.9563 3.8052 35.275L11.4032 22.1208C11.4553 22.0306 11.498 21.9321 11.5303 21.828C12.9702 17.1751 15.9282 13.0042 19.8588 10.0837C23.9262 7.06161 28.7631 5.48826 33.8491 5.52454C46.3462 5.62184 56.6552 15.8611 56.8294 28.3494C56.9418 36.412 52.9669 43.8042 46.1859 48.164V58.4575C46.1859 58.6523 46.0278 58.8107 45.8323 58.8107Z" fill="black"/>
<path d="M20.5125 34.9971C20.6495 35.2457 20.7907 35.4917 20.9418 35.731L20.5304 36.1424C19.9888 36.6838 19.9888 37.5614 20.5304 38.1031L23.0278 40.5993C23.5695 41.1407 24.4478 41.1407 24.9895 40.5993L25.3831 40.2058C26.7766 41.0983 28.334 41.7568 29.9998 42.1281V42.674C29.9998 43.4397 30.6209 44.0603 31.3867 44.0603H34.9187C35.6848 44.0603 36.3056 43.4395 36.3056 42.674V42.1281C37.9714 41.7568 39.529 41.0983 40.9223 40.2058L41.3162 40.5993C41.8579 41.1407 42.7361 41.1407 43.2778 40.5993L45.7752 38.1031C46.3169 37.5617 46.3169 36.6838 45.7752 36.1424L45.3639 35.731C46.24 34.341 46.8847 32.7907 47.2449 31.1342H47.8507C48.6167 31.1342 49.2376 30.5134 49.2376 29.7479V26.2177C49.2376 25.452 48.6167 24.8314 47.8507 24.8314H47.2117C46.8371 23.1951 46.1844 21.6647 45.3052 20.2932L45.7752 19.8232C46.3169 19.2818 46.3169 18.4039 45.7752 17.8625L43.2778 15.3663C42.7361 14.8249 41.8579 14.8249 41.3162 15.3663L40.8285 15.8538C39.459 14.9915 37.9344 14.3532 36.3056 13.9902V13.2918C36.3056 12.5261 35.6845 11.9055 34.9187 11.9055H31.3867C30.6207 11.9055 29.9998 12.5261 29.9998 13.2918V13.9902C28.371 14.3532 26.8466 14.9915 25.4769 15.8538L24.9892 15.3663C24.4475 14.8249 23.5693 14.8249 23.0276 15.3663L20.5302 17.8625C19.9885 18.4039 19.9885 19.2818 20.5302 19.8232L21.0002 20.2932C20.121 21.6647 19.4681 23.1951 19.0938 24.8314H18.4547C17.6887 24.8314 17.0678 25.452 17.0678 26.2177V29.7479C17.0678 30.5136 17.6887 31.1342 18.4547 31.1342H19.0605C19.1322 31.4631 19.218 31.7868 19.3116 32.107L20.5125 34.9971ZM33.1527 35.1903C29.1701 35.1903 25.9417 31.9633 25.9417 27.9828C25.9417 24.0021 29.1703 20.7753 33.1527 20.7753C37.1353 20.7753 40.3639 24.0023 40.3639 27.9828C40.3639 31.9633 37.1353 35.1903 33.1527 35.1903Z" fill="#75E8E7"/>
<path d="M33.1524 35.5438C28.9815 35.5438 25.5879 32.152 25.5879 27.9826C25.5879 23.8136 28.9812 20.4216 33.1524 20.4216C37.3236 20.4216 40.7172 23.8134 40.7172 27.9826C40.7172 32.152 37.3239 35.5438 33.1524 35.5438ZM33.1524 21.1287C29.3713 21.1287 26.295 24.2035 26.295 27.9828C26.295 31.7624 29.3713 34.8372 33.1524 34.8372C36.9338 34.8372 40.0101 31.7624 40.0101 27.9828C40.0101 24.2033 36.9338 21.1287 33.1524 21.1287Z" fill="black"/>
<path fill-rule="evenodd" clip-rule="evenodd" d="M34.9186 44.4135H31.3869C30.4271 44.4135 29.6462 43.6332 29.6462 42.6736V42.4083C28.1562 42.0459 26.7417 41.4571 25.434 40.6547L25.2393 40.8491C24.5607 41.5269 23.4566 41.5274 22.7779 40.8491L20.2806 38.3528C19.6019 37.6743 19.6019 36.5708 20.2806 35.8925L20.4948 35.6783C20.4015 35.5216 19.1654 32.8661 18.9721 32.206C18.922 32.035 18.8335 31.7133 18.7788 31.4872H18.4545C17.4949 31.4872 16.714 30.7069 16.714 29.7475V26.2172C16.714 25.2581 17.4946 24.4775 18.4545 24.4775H18.8146C19.1781 23.0173 19.7613 21.6289 20.5507 20.3434L20.2801 20.0727C19.6015 19.3944 19.6015 18.2909 20.2801 17.6123L22.7775 15.1161C23.4563 14.4376 24.5604 14.4381 25.2388 15.1161L25.5287 15.4059C26.8113 14.6322 28.1937 14.0625 29.6457 13.7093V13.2916C29.6457 12.3322 30.4266 11.5517 31.3865 11.5517H34.9182C35.878 11.5517 36.6589 12.332 36.6589 13.2916V13.7093C38.1109 14.0625 39.4932 14.6322 40.7759 15.4059L41.0658 15.1161C41.7442 14.4378 42.8483 14.4376 43.5272 15.1161L46.0246 17.6123C46.3534 17.9412 46.5344 18.378 46.5344 18.8426C46.5344 19.3075 46.3534 19.7443 46.0246 20.073L45.754 20.3437C46.5436 21.6286 47.1265 23.0168 47.4902 24.4778H47.8502C48.8098 24.4778 49.5907 25.2581 49.5907 26.2175V29.7477C49.5907 30.7069 48.81 31.4874 47.8502 31.4874H47.5265C47.1751 32.9665 46.5988 34.374 45.811 35.6788L46.0246 35.8922C46.3534 36.2209 46.5344 36.6577 46.5344 37.1225C46.5344 37.5871 46.3534 38.0239 46.0246 38.3528L43.5272 40.8491C42.8485 41.5276 41.7445 41.5271 41.0658 40.8491L40.8711 40.6547C39.5634 41.4571 38.1489 42.0461 36.6589 42.4083V42.6736C36.6592 43.6329 35.8785 44.4135 34.9186 44.4135ZM21.2411 35.5431C21.1091 35.3331 19.9459 32.8377 19.6507 32.0078C19.5496 31.662 19.4695 31.3515 19.4058 31.0591C19.3702 30.8965 19.2267 30.7806 19.0603 30.7806H18.4545C17.8848 30.7806 17.4211 30.3172 17.4211 29.7477V26.2175C17.4211 25.648 17.8848 25.1846 18.4545 25.1846H19.0937C19.2585 25.1846 19.4018 25.0708 19.4383 24.9099C19.7985 23.336 20.4241 21.8468 21.2979 20.4836C21.3877 20.3437 21.3677 20.1604 21.2503 20.043L20.7803 19.5732C20.3774 19.1706 20.3774 18.5152 20.7803 18.1123L23.2781 15.6158C23.681 15.213 24.3367 15.2132 24.7396 15.6158L25.2273 16.1033C25.3437 16.2202 25.5261 16.2399 25.6657 16.1525C27.0269 15.2952 28.511 14.6836 30.0768 14.3346C30.2388 14.2988 30.3536 14.1551 30.3536 13.9897V13.2914C30.3536 12.7217 30.8172 12.2583 31.3872 12.2583H34.9189C35.4888 12.2583 35.9525 12.7217 35.9525 13.2914V13.9897C35.9525 14.1551 36.0673 14.2988 36.2292 14.3346C37.7951 14.6838 39.2794 15.2952 40.6404 16.1525C40.7804 16.2399 40.9624 16.2202 41.0788 16.1033L41.5665 15.6158C41.9691 15.2134 42.6249 15.213 43.0279 15.6158L45.5253 18.112C45.7205 18.3076 45.828 18.5667 45.828 18.8426C45.828 19.1185 45.7205 19.3782 45.5253 19.5732L45.0553 20.043C44.9379 20.1604 44.9179 20.3437 45.0077 20.4836C45.8812 21.8461 46.5071 23.3353 46.8675 24.9101C46.904 25.0708 47.0473 25.1846 47.2121 25.1846H47.8511C48.4208 25.1846 48.8845 25.648 48.8845 26.2175V29.7477C48.8845 30.3172 48.4208 30.7806 47.8511 30.7806H47.2453C47.0789 30.7806 46.9349 30.8967 46.8998 31.0591C46.5535 32.6517 45.9364 34.1601 45.065 35.5426C44.977 35.6821 44.9976 35.8642 45.1142 35.9808L45.5255 36.3919C45.7207 36.5872 45.8282 36.8466 45.8282 37.1225C45.8282 37.3984 45.7207 37.6578 45.5255 37.8531L43.0282 40.3493C42.6251 40.752 41.9693 40.7517 41.5667 40.3493L41.1729 39.9556C41.0559 39.8383 40.8728 39.8185 40.7321 39.9081C39.3475 40.7949 37.8325 41.4253 36.2292 41.783C36.0673 41.8188 35.9525 41.9625 35.9525 42.1279V42.6736C35.9525 43.2432 35.4888 43.7067 34.9189 43.7067H31.3872C30.8172 43.7067 30.3536 43.2432 30.3536 42.6736V42.1279C30.3536 41.9625 30.2388 41.8188 30.0768 41.783C28.4735 41.4253 26.9583 40.7946 25.574 39.9081C25.4335 39.8183 25.2504 39.8383 25.1332 39.9556L24.7393 40.3493C24.3367 40.752 23.681 40.752 23.2779 40.3493L20.7805 37.8531C20.3777 37.4503 20.3777 36.7948 20.7805 36.3922L21.1918 35.981C21.3085 35.8644 21.329 35.6828 21.2411 35.5431Z" fill="black"/>
<path d="M48.2315 42.7974H47.9057C47.7148 41.9631 47.382 41.1828 46.9337 40.4835L47.1734 40.2439C47.4496 39.9678 47.4496 39.5204 47.1734 39.2442L45.9 37.9715C45.6238 37.6954 45.1762 37.6954 44.8999 37.9715L44.6512 38.2201C43.953 37.7804 43.1757 37.4551 42.3452 37.2699V36.9139C42.3452 36.5235 42.0287 36.2071 41.6381 36.2071H39.8372C39.4467 36.2071 39.1301 36.5235 39.1301 36.9139V37.2699C38.69 37.3884 37.5223 37.7804 36.8241 38.2201L36.5754 37.9715C36.2992 37.6954 35.8515 37.6954 35.5753 37.9715L34.302 39.2442C34.0257 39.5204 34.0257 39.9678 34.302 40.2439L34.5417 40.4835C34.0934 41.1828 33.7605 41.9631 33.5696 42.7974H33.2438C32.8533 42.7974 32.5367 43.1138 32.5367 43.5042V45.3042C32.5367 45.6946 32.8533 46.011 33.2438 46.011H33.5526C33.7362 46.8556 34.0651 47.646 34.5117 48.3547L34.302 48.5644C34.0257 48.8406 34.0257 49.288 34.302 49.5641L35.5753 50.8368C35.8515 51.1129 36.2992 51.1129 36.5754 50.8368L36.7763 50.6361C37.4867 51.091 38.2808 51.4268 39.1303 51.6162V51.8944C39.1303 52.2848 39.4469 52.6012 39.8375 52.6012H41.6383C42.0289 52.6012 42.3455 52.2848 42.3455 51.8944V51.6162C43.1948 51.4268 43.9889 51.091 44.6996 50.6361L44.9004 50.8368C45.1766 51.1129 45.6243 51.1129 45.9005 50.8368L47.1738 49.5641C47.4501 49.288 47.4501 48.8406 47.1738 48.5644L46.9641 48.3547C47.4107 47.646 47.7396 46.8556 47.9232 46.011H48.232C48.6225 46.011 48.9391 45.6946 48.9391 45.3042V43.5042C48.9386 43.1138 48.6221 42.7974 48.2315 42.7974ZM40.7374 48.0791C38.7068 48.0791 37.0608 46.4336 37.0608 44.4042C37.0608 42.3745 38.707 40.7292 40.7374 40.7292C42.7681 40.7292 44.4141 42.3747 44.4141 44.4042C44.4141 46.4339 42.7681 48.0791 40.7374 48.0791Z" fill="white"/>
<path d="M41.6379 52.9548H39.8371C39.252 52.9548 38.7763 52.4792 38.7763 51.8946V51.8944C38.0918 51.7149 37.4387 51.4432 36.8284 51.0835L36.8246 51.0872C36.6247 51.2872 36.3581 51.3975 36.0748 51.3975C35.7915 51.3975 35.5249 51.2872 35.3245 51.087L34.0514 49.8143C33.6378 49.4008 33.6378 48.7284 34.0514 48.3149L34.0653 48.301C33.7127 47.6934 33.4468 47.0441 33.2726 46.3646H33.2434C32.6586 46.3646 32.1825 45.8889 32.1825 45.3044V43.5044C32.1825 42.9198 32.6586 42.4439 33.2434 42.4439H33.2927C33.4723 41.7741 33.7408 41.1344 34.0939 40.536L34.0514 40.4936C33.6378 40.0801 33.6378 39.4077 34.0514 38.9942L35.3245 37.7215C35.5249 37.521 35.7913 37.411 36.0748 37.411C36.3581 37.411 36.6247 37.5215 36.8251 37.7215L36.8807 37.7771C37.5094 37.4327 38.3139 37.1488 38.7761 37.0055V36.9136C38.7761 36.3291 39.2518 35.8534 39.8368 35.8534H41.6377C42.2225 35.8534 42.6984 36.3291 42.6984 36.9136V36.9919C43.3638 37.1662 44 37.4287 44.5968 37.7743L44.6499 37.7213C45.0631 37.3076 45.7363 37.3073 46.15 37.7213L47.423 38.994C47.8367 39.4075 47.8367 40.0799 47.423 40.4934L47.3809 40.5358C47.734 41.1342 48.0027 41.7739 48.1818 42.4437H48.2313C48.8161 42.4437 49.292 42.9196 49.292 43.5041V45.3041C49.292 45.8887 48.8161 46.3643 48.2313 46.3643H48.2018C48.0277 47.0438 47.7618 47.6931 47.4091 48.3008L47.423 48.3147C47.8367 48.7281 47.8367 49.4005 47.423 49.814L46.15 51.0868C45.7365 51.4998 45.0633 51.5007 44.6499 51.0868L44.6463 51.0832C44.0361 51.443 43.3831 51.7151 42.6984 51.8942V51.8944C42.6986 52.4792 42.2227 52.9548 41.6379 52.9548ZM36.7763 50.2829C36.8418 50.2829 36.9083 50.3013 36.967 50.3387C37.656 50.7798 38.4096 51.0936 39.207 51.2715C39.3687 51.3073 39.4837 51.451 39.4837 51.6164V51.8946C39.4837 52.0895 39.6423 52.248 39.8373 52.248H41.6381C41.8331 52.248 41.9917 52.0895 41.9917 51.8946V51.6164C41.9917 51.451 42.1065 51.3073 42.2684 51.2715C43.0659 51.0936 43.8194 50.7798 44.5089 50.3387C44.6489 50.2492 44.8325 50.269 44.9495 50.3863L45.1503 50.5868C45.2882 50.7242 45.5121 50.7244 45.6505 50.5868L46.9236 49.3141C47.0615 49.1763 47.0615 48.952 46.9236 48.8141L46.7138 48.6044C46.5971 48.4878 46.5766 48.3057 46.6645 48.1662C47.098 47.4787 47.4051 46.7283 47.5774 45.9358C47.6128 45.7735 47.7566 45.6573 47.923 45.6573H48.232C48.427 45.6573 48.5856 45.4987 48.5856 45.3039V43.5039C48.5856 43.3088 48.427 43.1503 48.232 43.1503H47.906C47.7413 43.1503 47.5979 43.0365 47.5614 42.8755C47.3823 42.0926 47.0709 41.3517 46.6362 40.6736C46.5464 40.5337 46.5665 40.3504 46.6838 40.233L46.9236 39.9934C47.0615 39.8556 47.0615 39.6313 46.9236 39.4935L45.6505 38.2208C45.5121 38.0832 45.2882 38.0832 45.1503 38.2208L44.9014 38.4696C44.7849 38.5862 44.6025 38.6062 44.4629 38.5188C43.7857 38.0919 43.0472 37.7877 42.2684 37.6143C42.1067 37.5785 41.9917 37.435 41.9917 37.2694V36.9132C41.9917 36.7183 41.8331 36.5598 41.6381 36.5598H39.8373C39.6423 36.5598 39.4837 36.7183 39.4837 36.9132V37.2694C39.4837 37.4291 39.3765 37.5693 39.2221 37.6105C38.7848 37.7283 37.6689 38.1053 37.0127 38.5186C36.8732 38.606 36.6907 38.5859 36.5743 38.4693L36.3254 38.2205C36.192 38.0872 35.9586 38.0874 35.8252 38.2205L34.5521 39.4932C34.4142 39.6311 34.4142 39.8554 34.5521 39.9932L34.7918 40.2328C34.9092 40.3501 34.9292 40.5334 34.8394 40.6731C34.405 41.3514 34.0936 42.0922 33.9143 42.8755C33.8775 43.0362 33.7344 43.15 33.5696 43.15H33.2439C33.0487 43.15 32.8901 43.3086 32.8901 43.5037V45.3037C32.8901 45.4985 33.0487 45.6571 33.2439 45.6571H33.5527C33.7191 45.6571 33.8626 45.773 33.8982 45.9355C34.0705 46.7279 34.3777 47.4785 34.8111 48.166C34.8991 48.3057 34.8786 48.4876 34.7619 48.6042L34.5521 48.8139C34.4142 48.9517 34.4142 49.176 34.5521 49.3138L35.8252 50.5866C35.9586 50.7199 36.1922 50.7202 36.3251 50.5866L36.5267 50.3858C36.5943 50.3182 36.6848 50.2829 36.7763 50.2829ZM40.7375 48.4327C38.5152 48.4327 36.707 46.6254 36.707 44.4041C36.707 42.1829 38.5152 40.3756 40.7375 40.3756C42.9598 40.3756 44.7677 42.1829 44.7677 44.4041C44.7677 46.6254 42.9598 48.4327 40.7375 48.4327ZM40.7375 41.0824C38.905 41.0824 37.4141 42.5723 37.4141 44.4041C37.4141 46.2359 38.9048 47.7259 40.7375 47.7259C42.5697 47.7259 44.0606 46.2359 44.0606 44.4041C44.0606 42.5723 42.5699 41.0824 40.7375 41.0824Z" fill="black"/>
<path d="M34.1642 6.23669C37.0281 6.29795 39.7695 6.91287 42.2845 7.97308L41.5915 8.6634C41.5232 8.73172 41.4666 8.80711 41.4218 8.88722C39.2061 7.61497 36.7594 6.70554 34.1642 6.23669Z" fill="white"/>
</svg>
