<svg width="125" height="29" viewBox="0 0 125 29" fill="none" xmlns="http://www.w3.org/2000/svg">
<path d="M10.16 28.252C8.408 28.252 6.824 27.952 5.408 27.352C4.016 26.752 2.912 25.888 2.096 24.76C1.28 23.632 0.859998 22.3 0.835999 20.764H6.236C6.308 21.796 6.668 22.612 7.316 23.212C7.988 23.812 8.9 24.112 10.052 24.112C11.228 24.112 12.152 23.836 12.824 23.284C13.496 22.708 13.832 21.964 13.832 21.052C13.832 20.308 13.604 19.696 13.148 19.216C12.692 18.736 12.116 18.364 11.42 18.1C10.748 17.812 9.812 17.5 8.612 17.164C6.98 16.684 5.648 16.216 4.616 15.76C3.608 15.28 2.732 14.572 1.988 13.636C1.268 12.676 0.907999 11.404 0.907999 9.81999C0.907999 8.33198 1.28 7.03598 2.024 5.93198C2.768 4.82798 3.812 3.98798 5.156 3.41198C6.5 2.81199 8.036 2.51199 9.764 2.51199C12.356 2.51199 14.456 3.14798 16.064 4.41998C17.696 5.66798 18.596 7.41999 18.764 9.67599H13.22C13.172 8.81199 12.8 8.10399 12.104 7.55199C11.432 6.97599 10.532 6.68799 9.404 6.68799C8.42 6.68799 7.628 6.93998 7.028 7.44398C6.452 7.94798 6.164 8.67998 6.164 9.63998C6.164 10.312 6.38 10.876 6.812 11.332C7.268 11.764 7.82 12.124 8.468 12.412C9.14 12.676 10.076 12.988 11.276 13.348C12.908 13.828 14.24 14.308 15.272 14.788C16.304 15.268 17.192 15.988 17.936 16.948C18.68 17.908 19.052 19.168 19.052 20.728C19.052 22.072 18.704 23.32 18.008 24.472C17.312 25.624 16.292 26.548 14.948 27.244C13.604 27.916 12.008 28.252 10.16 28.252Z" fill="#FBFBFB"/>
<path d="M29.2895 12.196V21.844C29.2895 22.516 29.4455 23.008 29.7575 23.32C30.0935 23.608 30.6455 23.752 31.4135 23.752H33.7535V28H30.5855C26.3375 28 24.2135 25.936 24.2135 21.808V12.196H21.8375V8.05599H24.2135V3.12398H29.2895V8.05599H33.7535V12.196H29.2895Z" fill="#FBFBFB"/>
<path d="M56.2065 8.05599V28H51.1305V25.48C50.4825 26.344 49.6305 27.028 48.5745 27.532C47.5425 28.012 46.4145 28.252 45.1905 28.252C43.6305 28.252 42.2505 27.928 41.0505 27.28C39.8505 26.608 38.9025 25.636 38.2065 24.364C37.5345 23.068 37.1985 21.532 37.1985 19.756V8.05599H42.2385V19.036C42.2385 20.62 42.6345 21.844 43.4265 22.708C44.2185 23.548 45.2985 23.968 46.6665 23.968C48.0585 23.968 49.1505 23.548 49.9425 22.708C50.7345 21.844 51.1305 20.62 51.1305 19.036V8.05599H56.2065Z" fill="#FBFBFB"/>
<path d="M59.8833 17.956C59.8833 15.94 60.2793 14.152 61.0713 12.592C61.8873 11.032 62.9913 9.83199 64.3833 8.99199C65.7753 8.15199 67.3233 7.73198 69.0273 7.73198C70.3233 7.73198 71.5593 8.01998 72.7353 8.59598C73.9113 9.14798 74.8473 9.89198 75.5433 10.828V1.35999H80.6553V28H75.5433V25.048C74.9193 26.032 74.0433 26.824 72.9153 27.424C71.7873 28.024 70.4793 28.324 68.9913 28.324C67.3113 28.324 65.7753 27.892 64.3833 27.028C62.9913 26.164 61.8873 24.952 61.0713 23.392C60.2793 21.808 59.8833 19.996 59.8833 17.956ZM75.5793 18.028C75.5793 16.804 75.3393 15.76 74.8593 14.896C74.3793 14.008 73.7313 13.336 72.9153 12.88C72.0993 12.4 71.2233 12.16 70.2873 12.16C69.3513 12.16 68.4873 12.388 67.6953 12.844C66.9033 13.3 66.2553 13.972 65.7513 14.86C65.2713 15.724 65.0313 16.756 65.0313 17.956C65.0313 19.156 65.2713 20.212 65.7513 21.124C66.2553 22.012 66.9033 22.696 67.6953 23.176C68.5113 23.656 69.3753 23.896 70.2873 23.896C71.2233 23.896 72.0993 23.668 72.9153 23.212C73.7313 22.732 74.3793 22.06 74.8593 21.196C75.3393 20.308 75.5793 19.252 75.5793 18.028Z" fill="#FBFBFB"/>
<path d="M87.8098 28.252C86.8978 28.252 86.1417 27.976 85.5417 27.424C84.9657 26.848 84.6777 26.14 84.6777 25.3C84.6777 24.46 84.9657 23.764 85.5417 23.212C86.1417 22.636 86.8978 22.348 87.8098 22.348C88.6978 22.348 89.4298 22.636 90.0058 23.212C90.5818 23.764 90.8698 24.46 90.8698 25.3C90.8698 26.14 90.5818 26.848 90.0058 27.424C89.4298 27.976 88.6978 28.252 87.8098 28.252Z" fill="#FBFBFB"/>
<path d="M98.096 5.904C97.208 5.904 96.464 5.628 95.864 5.076C95.288 4.5 95 3.792 95 2.952C95 2.112 95.288 1.416 95.864 0.863999C96.464 0.288 97.208 0 98.096 0C98.984 0 99.716 0.288 100.292 0.863999C100.892 1.416 101.192 2.112 101.192 2.952C101.192 3.792 100.892 4.5 100.292 5.076C99.716 5.628 98.984 5.904 98.096 5.904ZM100.58 8.28V28.224H95.54V8.28H100.58Z" fill="#75E8E7"/>
<path d="M114.416 28.548C112.496 28.548 110.768 28.128 109.232 27.288C107.696 26.424 106.484 25.212 105.596 23.652C104.732 22.092 104.3 20.292 104.3 18.252C104.3 16.212 104.744 14.412 105.632 12.852C106.544 11.292 107.78 10.092 109.34 9.252C110.9 8.388 112.64 7.956 114.56 7.956C116.48 7.956 118.22 8.388 119.78 9.252C121.34 10.092 122.564 11.292 123.452 12.852C124.364 14.412 124.82 16.212 124.82 18.252C124.82 20.292 124.352 22.092 123.416 23.652C122.504 25.212 121.256 26.424 119.672 27.288C118.112 28.128 116.36 28.548 114.416 28.548ZM114.416 24.156C115.328 24.156 116.18 23.94 116.972 23.508C117.788 23.052 118.436 22.38 118.916 21.492C119.396 20.604 119.636 19.524 119.636 18.252C119.636 16.356 119.132 14.904 118.124 13.896C117.14 12.864 115.928 12.348 114.488 12.348C113.048 12.348 111.836 12.864 110.852 13.896C109.892 14.904 109.412 16.356 109.412 18.252C109.412 20.148 109.88 21.612 110.816 22.644C111.776 23.652 112.976 24.156 114.416 24.156Z" fill="#75E8E7"/>
</svg>
