<svg width="77" height="64" viewBox="0 0 77 64" fill="none" xmlns="http://www.w3.org/2000/svg">
<ellipse cx="44.9108" cy="32" rx="31.8887" ry="32" fill="#75E8E7"/>
<path d="M3.85709 31.1523V54.4069C3.85709 56.6327 5.65505 58.4369 7.87304 58.4369H38.4626C40.6806 58.4369 42.4786 56.6327 42.4786 54.4069V9.92786C42.4786 7.70213 40.6806 5.89789 38.4626 5.89789H7.87328C5.65529 5.89789 3.85732 7.70213 3.85732 9.92786V27.8423V31.1523H3.85709Z" fill="white"/>
<path fill-rule="evenodd" clip-rule="evenodd" d="M38.4629 58.7906H7.87332C5.46468 58.7906 3.50519 56.8242 3.50519 54.4072V31.1526V9.92787C3.50519 7.51083 5.46468 5.54449 7.87332 5.54449H38.4629C40.8715 5.54449 42.831 7.51083 42.831 9.92787V54.4069C42.8313 56.8242 40.8715 58.7906 38.4629 58.7906ZM4.20954 54.4072V31.1526V9.92787C4.20954 7.90052 5.85325 6.2513 7.87332 6.2513H38.4629C40.4832 6.2513 42.1269 7.90052 42.1267 9.92787V54.4072C42.1267 56.4345 40.4832 58.0838 38.4629 58.0838H7.87332C5.85325 58.0838 4.20954 56.4345 4.20954 54.4072Z" fill="black"/>
<path d="M20.7646 9.66754H9.02479C8.04011 9.66754 7.24185 10.4686 7.24185 11.4567V48.8729C7.24185 49.861 8.04011 50.6621 9.02479 50.6621H37.3109C38.2956 50.6621 39.0939 49.861 39.0939 48.8729V11.4567C39.0939 10.4686 38.2956 9.66754 37.3109 9.66754H23.9281H20.7646Z" fill="white"/>
<path fill-rule="evenodd" clip-rule="evenodd" d="M37.3109 51.0157H9.02475C7.84732 51.0157 6.8894 50.0544 6.8894 48.8731V11.4567C6.8894 10.2751 7.84732 9.31412 9.02475 9.31412H20.7643H37.3109C38.4883 9.31412 39.4462 10.2754 39.4462 11.4567V48.8731C39.4462 50.0544 38.4883 51.0157 37.3109 51.0157ZM9.02475 10.0209H20.7643H37.3109C38.1 10.0209 38.7419 10.6651 38.7419 11.4567V48.8731C38.7419 49.6647 38.0998 50.3089 37.3109 50.3089H9.02475C8.23565 50.3089 7.59375 49.6647 7.59375 48.8731V11.4567C7.59375 10.6651 8.23588 10.0209 9.02475 10.0209Z" fill="black"/>
<path d="M23.0506 56.5523C24.0879 56.5523 24.9288 55.7085 24.9288 54.6675C24.9288 53.6266 24.0879 52.7827 23.0506 52.7827C22.0132 52.7827 21.1723 53.6266 21.1723 54.6675C21.1723 55.7085 22.0132 56.5523 23.0506 56.5523Z" fill="#75E8E7"/>
<path d="M23.0508 56.9058C21.821 56.9058 20.8204 55.9016 20.8204 54.6675C20.8204 53.4335 21.821 52.4293 23.0508 52.4293C24.2806 52.4293 25.2813 53.4335 25.2813 54.6675C25.2813 55.9016 24.2806 56.9058 23.0508 56.9058ZM23.0508 53.1361C22.2094 53.1361 21.5248 53.8231 21.5248 54.6675C21.5248 55.5119 22.2094 56.199 23.0508 56.199C23.8923 56.199 24.5769 55.5119 24.5769 54.6675C24.5769 53.8231 23.8923 53.1361 23.0508 53.1361Z" fill="black"/>
<path d="M28.2275 49.0326C33.0379 49.0326 36.9374 45.1194 36.9374 40.2923C36.9374 35.4651 33.0379 31.5519 28.2275 31.5519C23.4171 31.5519 19.5175 35.4651 19.5175 40.2923C19.5175 45.1194 23.4171 49.0326 28.2275 49.0326Z" fill="#75E8E7"/>
<path d="M28.2277 49.3863C23.2308 49.3863 19.1653 45.3068 19.1653 40.2925C19.1653 35.2782 23.2306 31.1985 28.2277 31.1985C33.2248 31.1985 37.2901 35.2779 37.2901 40.2925C37.2899 45.3068 33.2246 49.3863 28.2277 49.3863ZM28.2277 31.9053C23.6192 31.9053 19.8697 35.6679 19.8697 40.2925C19.8697 44.9171 23.6192 48.6795 28.2277 48.6795C32.8363 48.6795 36.5858 44.9171 36.5858 40.2925C36.5855 35.6676 32.836 31.9053 28.2277 31.9053Z" fill="black"/>
<path d="M32.7356 39.6771V42.9741C32.7356 43.4373 32.3618 43.8126 31.9 43.8126H24.5544C24.0928 43.8126 23.7188 43.4376 23.7188 42.9741V39.6771L28.2271 41.9783L32.7356 39.6771Z" fill="white"/>
<path d="M31.9 44.166H24.5544C23.8996 44.166 23.3666 43.6315 23.3666 42.9741V39.6769C23.3666 39.5541 23.4303 39.4399 23.5347 39.3755C23.6392 39.3115 23.7693 39.306 23.8785 39.3619L28.2271 41.5813L32.5757 39.3619C32.6847 39.306 32.8148 39.3115 32.9195 39.3755C33.0237 39.4399 33.0876 39.5539 33.0876 39.6769V42.9741C33.0878 43.6315 32.5549 44.166 31.9 44.166ZM24.071 40.2532V42.9741C24.071 43.2415 24.2879 43.4592 24.5544 43.4592H31.9C32.1665 43.4592 32.3835 43.2418 32.3835 42.9741V40.2532L28.387 42.293C28.287 42.3444 28.1677 42.3444 28.0679 42.293L24.071 40.2532Z" fill="black"/>
<path d="M34.0708 38.9965V43.2133C33.8971 42.9892 33.6621 42.8514 33.4024 42.8514C33.1444 42.8514 32.9094 42.9892 32.7356 43.2133V39.6771L34.0708 38.9965Z" fill="white"/>
<path d="M34.0708 43.5667C33.9642 43.5667 33.8612 43.5179 33.7929 43.4303C33.7276 43.3459 33.59 43.2046 33.4022 43.2046C33.216 43.2046 33.0789 43.3457 33.0138 43.4298C32.9211 43.5493 32.7633 43.5961 32.6215 43.5474C32.479 43.4984 32.3835 43.3641 32.3835 43.2131V39.6769C32.3835 39.5438 32.4579 39.422 32.576 39.3619L33.9109 38.6813C34.0199 38.6256 34.1504 38.6308 34.2547 38.6951C34.3592 38.7592 34.4228 38.8735 34.4228 38.9962V43.2131C34.4228 43.3641 34.3272 43.4984 34.1849 43.5474C34.1476 43.5603 34.1091 43.5667 34.0708 43.5667ZM33.4024 42.498C33.5106 42.498 33.6168 42.5138 33.7189 42.5449V39.5725L33.0883 39.8941V42.5447C33.1895 42.5138 33.2949 42.498 33.4024 42.498Z" fill="black"/>
<path d="M28.2272 35.0539L21.4443 38.5158L28.2272 41.978L35.0103 38.5158L28.2272 35.0539Z" fill="white"/>
<path d="M28.2274 42.3314C28.1727 42.3314 28.1178 42.3187 28.0678 42.293L21.2847 38.8311C21.1664 38.7708 21.0922 38.6492 21.0922 38.5161C21.0922 38.3832 21.1664 38.2614 21.2847 38.2011L28.0678 34.7389C28.1678 34.6875 28.2871 34.6875 28.3869 34.7389L35.17 38.2011C35.2883 38.2614 35.3625 38.383 35.3625 38.5161C35.3625 38.649 35.2883 38.7708 35.17 38.8311L28.3869 42.293C28.3368 42.3185 28.2821 42.3314 28.2274 42.3314ZM22.2212 38.5158L28.2274 41.5813L34.2336 38.5158L28.2274 35.4502L22.2212 38.5158Z" fill="black"/>
<path d="M33.403 45.5309C33.9428 45.5309 34.3804 44.9311 34.3804 44.1913C34.3804 43.4514 33.9428 42.8516 33.403 42.8516C32.8632 42.8516 32.4256 43.4514 32.4256 44.1913C32.4256 44.9311 32.8632 45.5309 33.403 45.5309Z" fill="white"/>
<path d="M33.403 45.8843C32.6573 45.8843 32.0734 45.1407 32.0734 44.1913C32.0734 43.2418 32.6573 42.4982 33.403 42.4982C34.1487 42.4982 34.7326 43.2418 34.7326 44.1913C34.7326 45.1407 34.1487 45.8843 33.403 45.8843ZM33.403 43.205C33.0642 43.205 32.7778 43.6567 32.7778 44.1913C32.7778 44.7258 33.0642 45.1775 33.403 45.1775C33.7418 45.1775 34.0282 44.7258 34.0282 44.1913C34.0285 43.6567 33.742 43.205 33.403 43.205Z" fill="black"/>
<path d="M27.5848 25.0514C29.4257 20.5916 27.3152 15.4786 22.8708 13.6312C18.4263 11.7838 13.331 13.9016 11.4901 18.3614C9.64917 22.8212 11.7597 27.9342 16.2042 29.7816C20.6486 31.6291 25.7439 29.5113 27.5848 25.0514Z" fill="white"/>
<path d="M19.5362 30.8003C14.5393 30.8003 10.4738 26.7209 10.4738 21.7066C10.4738 16.692 14.5393 12.6125 19.5362 12.6125C24.533 12.6125 28.5985 16.692 28.5985 21.7066C28.5985 26.7209 24.533 30.8003 19.5362 30.8003ZM19.5362 13.3194C14.9276 13.3194 11.1781 17.0819 11.1781 21.7066C11.1781 26.3312 14.9276 30.0935 19.5362 30.0935C24.1447 30.0935 27.8942 26.3312 27.8942 21.7066C27.8942 17.0819 24.1447 13.3194 19.5362 13.3194Z" fill="black"/>
<path d="M19.5364 16.781C19.342 16.781 19.1843 16.623 19.1843 16.4276V15.673C19.1843 15.4777 19.342 15.3196 19.5364 15.3196C19.7308 15.3196 19.8886 15.4777 19.8886 15.673V16.4276C19.8886 16.623 19.7308 16.781 19.5364 16.781Z" fill="black"/>
<path d="M22.6848 17.8302C22.6116 17.8302 22.5376 17.8074 22.4745 17.76C22.3186 17.6434 22.2864 17.4219 22.4026 17.2655L22.8522 16.6607C22.9684 16.504 23.1896 16.472 23.345 16.5888C23.5009 16.7054 23.5331 16.9269 23.4169 17.0833L22.9673 17.6881C22.8982 17.781 22.7921 17.8302 22.6848 17.8302Z" fill="black"/>
<path d="M24.5835 20.5601C24.4318 20.5601 24.2916 20.4607 24.2461 20.3073C24.1907 20.12 24.2968 19.9235 24.4834 19.8679L25.2042 19.6531C25.3911 19.5975 25.5867 19.7042 25.6419 19.8913C25.6973 20.0783 25.5911 20.2751 25.4045 20.3307L24.6837 20.5455C24.6504 20.5554 24.6168 20.5601 24.5835 20.5601Z" fill="black"/>
<path d="M25.1842 24.1481C25.1438 24.1481 25.1027 24.1411 25.0625 24.1262L24.3568 23.8659C24.1744 23.7985 24.0807 23.5954 24.1476 23.4123C24.2147 23.229 24.4166 23.135 24.5998 23.2027L25.3055 23.463C25.488 23.5304 25.5816 23.7335 25.5147 23.9165C25.4621 24.0595 25.3274 24.1481 25.1842 24.1481Z" fill="black"/>
<path d="M16.3881 17.8302C16.2808 17.8302 16.1746 17.7809 16.1056 17.6881L15.656 17.0833C15.5398 16.9269 15.572 16.7054 15.7279 16.5888C15.883 16.4722 16.1044 16.5042 16.2207 16.6607L16.6703 17.2655C16.7865 17.4219 16.7543 17.6434 16.5984 17.76C16.5353 17.8073 16.4613 17.8302 16.3881 17.8302Z" fill="black"/>
<path d="M14.4893 20.5601C14.4559 20.5601 14.4221 20.5554 14.3885 20.5455L13.668 20.3307C13.4816 20.2751 13.3755 20.0783 13.4309 19.8913C13.4863 19.7042 13.6825 19.5975 13.8687 19.6531L14.5893 19.8679C14.7757 19.9235 14.8818 20.1203 14.8264 20.3073C14.7811 20.4609 14.6409 20.5601 14.4893 20.5601Z" fill="black"/>
<path d="M13.8885 24.1481C13.7452 24.1481 13.6102 24.0595 13.5579 23.9165C13.491 23.7334 13.5844 23.5301 13.7671 23.463L14.4728 23.2026C14.6557 23.1352 14.8579 23.229 14.925 23.4123C14.9919 23.5954 14.8985 23.7987 14.7158 23.8658L14.0101 24.1262C13.9699 24.141 13.9288 24.1481 13.8885 24.1481Z" fill="black"/>
<path d="M23.0572 21.5911C23.0572 22.488 22.7252 23.3039 22.1761 23.9276C21.6589 24.5149 21.329 25.2389 21.1928 26.0077H17.8791C17.7429 25.2389 17.4152 24.5149 16.8958 23.9255C16.3488 23.3039 16.0147 22.4859 16.0147 21.5911C16.0147 19.7332 17.498 18.1612 19.3453 18.063C21.3759 17.9562 23.0572 19.5772 23.0572 21.5911Z" fill="#75E8E7"/>
<path d="M21.1928 26.3611H17.8791C17.7082 26.3611 17.5621 26.2384 17.5323 26.0697C17.4034 25.3426 17.0921 24.682 16.6317 24.1597C16.0067 23.4493 15.6625 22.5373 15.6625 21.5914C15.6625 19.5588 17.3062 17.8177 19.3265 17.7103C20.4004 17.654 21.4227 18.0309 22.2014 18.7724C22.98 19.514 23.4092 20.5151 23.4092 21.5914C23.4092 22.5389 23.0647 23.4519 22.4397 24.1618C21.9791 24.6848 21.6675 25.3447 21.5391 26.0699C21.5095 26.2384 21.3635 26.3611 21.1928 26.3611ZM18.1651 25.6543H20.9068C21.0843 24.9155 21.4288 24.2426 21.9122 23.6936C22.4235 23.1129 22.705 22.3662 22.705 21.5911C22.705 20.7107 22.3543 19.8917 21.7168 19.2848C21.0796 18.6781 20.2445 18.3695 19.3639 18.4159C17.7117 18.5038 16.3671 19.9282 16.3671 21.5911C16.3671 22.3646 16.6486 23.1105 17.1597 23.6915C17.6431 24.24 17.9873 24.9138 18.1651 25.6543Z" fill="black"/>
<path d="M17.9616 26.0084H21.1107C21.5051 26.0084 21.8249 26.3293 21.8249 26.7251V27.0229C21.8249 27.4187 21.5051 27.7396 21.1107 27.7396H17.9616C17.5671 27.7396 17.2473 27.4187 17.2473 27.0229V26.7251C17.2476 26.3293 17.5674 26.0084 17.9616 26.0084Z" fill="#75E8E7"/>
<path d="M21.1109 28.0933H17.9616C17.3737 28.0933 16.8954 27.6131 16.8954 27.0232V26.7251C16.8954 26.1352 17.3737 25.655 17.9616 25.655H21.1109C21.6988 25.655 22.1771 26.1352 22.1771 26.7251V27.0229C22.1771 27.6131 21.6988 28.0933 21.1109 28.0933ZM17.9616 26.3618C17.762 26.3618 17.5998 26.5249 17.5998 26.7251V27.0229C17.5998 27.2232 17.762 27.3862 17.9616 27.3862H21.1109C21.3105 27.3862 21.4727 27.2232 21.4727 27.0229V26.7251C21.4727 26.5249 21.3105 26.3618 21.1109 26.3618H17.9616Z" fill="black"/>
<path d="M44.646 36.8588C49.4565 36.8588 53.3562 32.9455 53.3562 28.1182C53.3562 23.2909 49.4565 19.3776 44.646 19.3776C39.8354 19.3776 35.9358 23.2909 35.9358 28.1182C35.9358 32.9455 39.8354 36.8588 44.646 36.8588Z" fill="white"/>
<path d="M44.646 37.212C39.6491 37.212 35.5836 33.1326 35.5836 28.118C35.5836 23.1034 39.6488 19.0242 44.646 19.0242C49.6431 19.0242 53.7081 23.1037 53.7081 28.118C53.7081 33.1323 49.6428 37.212 44.646 37.212ZM44.646 19.731C40.0374 19.731 36.2879 23.4934 36.2879 28.118C36.2879 32.7426 40.0374 36.5052 44.646 36.5052C49.2545 36.5052 53.0038 32.7426 53.0038 28.118C53.0038 23.4934 49.2545 19.731 44.646 19.731Z" fill="black"/>
<path d="M50.9763 32.0323L44.6458 33.0756L38.3154 32.0323V24.1031L44.6458 25.1464L50.9763 24.1031V32.0323Z" fill="#75E8E7"/>
<path d="M44.6458 33.4292C44.6268 33.4292 44.6077 33.4275 44.5887 33.4245L38.258 32.3812C38.0878 32.3532 37.9629 32.2055 37.9629 32.0325V24.1031C37.9629 23.9995 38.0082 23.901 38.0871 23.8336C38.1658 23.7664 38.2698 23.7368 38.3722 23.7544L44.6458 24.7883L50.9192 23.7544C51.0218 23.7375 51.1255 23.7664 51.2042 23.8336C51.2831 23.9007 51.3284 23.9992 51.3284 24.1031V32.0323C51.3284 32.2052 51.2035 32.353 51.0333 32.381L44.7028 33.4242C44.684 33.4275 44.6648 33.4292 44.6458 33.4292ZM38.6673 31.7322L44.6458 32.7174L50.624 31.7322V24.5194L44.7028 25.4953C44.6653 25.5014 44.6268 25.5014 44.5887 25.4953L38.6673 24.5194V31.7322ZM50.9762 32.0323H50.9786H50.9762Z" fill="black"/>
<path d="M44.6456 33.4292C44.4512 33.4292 44.2935 33.2711 44.2935 33.0758V25.1463C44.2935 24.951 44.4512 24.7929 44.6456 24.7929C44.84 24.7929 44.9978 24.951 44.9978 25.1463V33.0755C44.9978 33.2708 44.84 33.4292 44.6456 33.4292Z" fill="black"/>
<path d="M38.7423 21.2285V11.4558C38.7423 10.6641 38.099 10.0209 37.3102 10.0209H33.7884C34.5773 10.0209 35.2206 10.6641 35.2206 11.4558V21.2285C33.2883 22.8966 32.0628 25.3657 32.0628 28.1175C32.0628 29.8327 32.5394 31.4372 33.3635 32.806C35.7348 34.4458 37.289 37.1906 37.289 40.2934C37.289 42.4845 36.5119 44.4989 35.2206 46.0681V48.8741C35.2206 49.6657 34.5773 50.3089 33.7884 50.3089H37.3102C38.099 50.3089 38.7423 49.6657 38.7423 48.8741V35.0089C36.8101 33.3408 35.5845 30.8717 35.5845 28.1175C35.5843 25.3657 36.8098 22.8966 38.7423 21.2285Z" fill="white"/>
</svg>
