<svg width="78" height="64" viewBox="0 0 78 64" fill="none" xmlns="http://www.w3.org/2000/svg">
<ellipse cx="45.4253" cy="32" rx="32.0152" ry="32" fill="#75E8E7"/>
<path d="M52.4215 44.5684H7.92099C5.6942 44.5684 3.8891 42.7642 3.8891 40.5385V9.8421C3.8891 7.61637 5.6942 5.81189 7.92099 5.81189H52.4213C54.6481 5.81189 56.4532 7.61637 56.4532 9.8421V40.5385C56.4534 42.7642 54.6483 44.5684 52.4215 44.5684Z" fill="white"/>
<path d="M52.4217 44.9218H7.92117C5.50321 44.9218 3.53571 42.9555 3.53571 40.5384V9.84209C3.53571 7.42505 5.50321 5.45871 7.92117 5.45871H52.4214C54.8396 5.45871 56.8069 7.42505 56.8069 9.84209V40.5384C56.8071 42.9555 54.8396 44.9218 52.4217 44.9218ZM7.92117 6.16528C5.89308 6.16528 4.24285 7.8145 4.24285 9.84185V40.5384C4.24285 42.5658 5.89308 44.215 7.92117 44.215H52.4214C54.4495 44.215 56.0998 42.5656 56.0998 40.5384V9.84209C56.0998 7.81473 54.4495 6.16552 52.4214 6.16552H7.92117V6.16528Z" fill="black"/>
<path d="M20.3187 8.7569H9.67153C8.11982 8.7569 6.86182 10.0143 6.86182 11.5653V38.815C6.86182 40.366 8.11982 41.6234 9.67153 41.6234H50.6712C52.2229 41.6234 53.4809 40.366 53.4809 38.815V11.5653C53.4809 10.0143 52.2229 8.7569 50.6712 8.7569H23.524H20.3187V8.7569Z" fill="white"/>
<path fill-rule="evenodd" clip-rule="evenodd" d="M50.6711 41.9768H9.67146C7.92741 41.9768 6.50818 40.5585 6.50818 38.815V11.5653C6.50818 9.82183 7.92741 8.4035 9.67146 8.4035H20.3187H50.6711C52.4152 8.4035 53.8344 9.82183 53.8344 11.5653V38.815C53.8344 40.5585 52.4152 41.9768 50.6711 41.9768ZM9.67146 9.11031H20.3187H50.6711C52.0253 9.11031 53.1273 10.2115 53.1273 11.5653V38.815C53.1273 40.1688 52.0253 41.27 50.6711 41.27H9.67146C8.31729 41.27 7.21532 40.1688 7.21532 38.815V11.5653C7.21532 10.2115 8.31729 9.11031 9.67146 9.11031Z" fill="black"/>
<path d="M33.5451 44.5684H26.7977V52.9542H33.5451V44.5684Z" fill="white"/>
<path d="M33.5451 53.3078H26.7978C26.6026 53.3078 26.4442 53.1497 26.4442 52.9544V44.5686C26.4442 44.3733 26.6026 44.2152 26.7978 44.2152H33.5451C33.7403 44.2152 33.8987 44.3733 33.8987 44.5686V52.9544C33.8987 53.1495 33.7405 53.3078 33.5451 53.3078ZM27.1516 52.601H33.1918V44.922H27.1516V52.601V52.601Z" fill="black"/>
<path d="M31.9279 58.469H40.473C40.473 55.4233 38.003 52.9542 34.9557 52.9542H25.3873C22.3402 52.9542 19.8699 55.4233 19.8699 58.469H28.729H31.9279Z" fill="white"/>
<path fill-rule="evenodd" clip-rule="evenodd" d="M40.4728 58.8224H28.7291H19.87C19.6748 58.8224 19.5164 58.6643 19.5164 58.469C19.5164 55.2334 22.1501 52.6008 25.3871 52.6008H34.9557C38.1928 52.6008 40.8264 55.2332 40.8264 58.469C40.8264 58.6643 40.668 58.8224 40.4728 58.8224ZM40.1072 58.1156H28.7291H20.2356C20.4178 55.4337 22.6587 53.3076 25.3871 53.3076H34.9557C37.6841 53.3076 39.925 55.4339 40.1072 58.1156Z" fill="black"/>
<path d="M50.6715 9.11032H47.1358C48.4888 9.11032 49.5919 10.2106 49.5919 11.5653V38.815C49.5919 40.1697 48.4888 41.27 47.1358 41.27H50.6715C52.0245 41.27 53.1277 40.1697 53.1277 38.815V11.5653C53.1277 10.2106 52.0245 9.11032 50.6715 9.11032Z" fill="white"/>
<path d="M30.1714 37.5863C37.006 37.5863 42.5464 32.0485 42.5464 25.2172C42.5464 18.386 37.006 12.8481 30.1714 12.8481C23.3369 12.8481 17.7964 18.386 17.7964 25.2172C17.7964 32.0485 23.3369 37.5863 30.1714 37.5863Z" fill="#75E8E7"/>
<path d="M30.1714 37.9397C23.1531 37.9397 17.4429 32.2325 17.4429 25.2172C17.4429 18.2019 23.1531 12.4947 30.1714 12.4947C37.1898 12.4947 42.9 18.2019 42.9 25.2172C42.9 32.2325 37.1898 37.9397 30.1714 37.9397ZM30.1714 13.2015C23.5429 13.2015 18.15 18.5916 18.15 25.2172C18.15 31.8428 23.5429 37.2329 30.1714 37.2329C36.8 37.2329 42.1929 31.8428 42.1929 25.2172C42.1929 18.5916 36.8 13.2015 30.1714 13.2015Z" fill="black"/>
<path d="M39.1986 24.1785L26.5087 16.8555C25.7087 16.3939 24.7088 16.9709 24.7088 17.8943V32.5405C24.7088 33.4638 25.7087 34.0408 26.5087 33.5792L39.1989 26.256C39.9986 25.7942 39.9986 24.6402 39.1986 24.1785Z" fill="white"/>
<path d="M25.9081 34.0957C25.6413 34.0957 25.3745 34.0255 25.1312 33.885C24.645 33.6044 24.3546 33.1017 24.3546 32.5405V17.8943C24.3546 17.3328 24.645 16.8303 25.1312 16.5494C25.6177 16.2688 26.1983 16.2686 26.6851 16.5494L39.3752 23.8727C39.8615 24.1533 40.1519 24.656 40.1519 25.2172C40.1519 25.7784 39.8617 26.2812 39.3752 26.5618L26.6851 33.885C26.4418 34.0255 26.175 34.0957 25.9081 34.0957ZM25.9081 17.0468C25.7627 17.0468 25.6175 17.0852 25.4848 17.1615C25.2199 17.3144 25.0617 17.5884 25.0617 17.894V32.5402C25.0617 32.846 25.2199 33.1198 25.4848 33.2727C25.75 33.4256 26.0663 33.4256 26.3315 33.2727L39.0216 25.9497C39.2866 25.7968 39.4447 25.5228 39.4447 25.217C39.4447 24.9112 39.2866 24.6374 39.0216 24.4843L26.3315 17.1615C26.1988 17.085 26.0536 17.0468 25.9081 17.0468Z" fill="black"/>
<path d="M14.4766 15.312H12.0721C11.6648 15.312 11.3345 14.982 11.3345 14.5749V12.1717C11.3345 11.7646 11.6648 11.4345 12.0721 11.4345H14.4766C14.8839 11.4345 15.2142 11.7646 15.2142 12.1717V14.5751C15.2142 14.9822 14.8839 15.312 14.4766 15.312Z" fill="#75E8E7"/>
<path d="M14.4764 15.6655H12.0718C11.4703 15.6655 10.981 15.1761 10.981 14.5749V12.1715C10.981 11.5702 11.4703 11.0811 12.0718 11.0811H14.4764C15.0781 11.0811 15.5675 11.5702 15.5675 12.1715V14.5751C15.5675 15.1764 15.0781 15.6655 14.4764 15.6655ZM12.0718 11.7879C11.8602 11.7879 11.6881 11.9599 11.6881 12.1715V14.5751C11.6881 14.7867 11.8602 14.9589 12.0718 14.9589H14.4764C14.688 14.9589 14.8603 14.7867 14.8603 14.5751V12.1715C14.8603 11.9599 14.6883 11.7879 14.4764 11.7879H12.0718Z" fill="black"/>
<path d="M14.4766 21.3225H12.0721C11.6648 21.3225 11.3345 20.9924 11.3345 20.5853V18.1819C11.3345 17.7748 11.6648 17.4447 12.0721 17.4447H14.4766C14.8839 17.4447 15.2142 17.7748 15.2142 18.1819V20.5853C15.2142 20.9924 14.8839 21.3225 14.4766 21.3225Z" fill="#75E8E7"/>
<path d="M14.4764 21.6759H12.0718C11.4703 21.6759 10.981 21.1868 10.981 20.5853V18.1819C10.981 17.5807 11.4703 17.0913 12.0718 17.0913H14.4764C15.0781 17.0913 15.5675 17.5807 15.5675 18.1819V20.5853C15.5675 21.1868 15.0781 21.6759 14.4764 21.6759ZM12.0718 17.7981C11.8602 17.7981 11.6881 17.9704 11.6881 18.1819V20.5853C11.6881 20.7969 11.8602 20.9691 12.0718 20.9691H14.4764C14.688 20.9691 14.8603 20.7969 14.8603 20.5853V18.1819C14.8603 17.9704 14.6883 17.7981 14.4764 17.7981H12.0718V17.7981Z" fill="black"/>
<path d="M14.4766 27.3327H12.0721C11.6648 27.3327 11.3345 27.0026 11.3345 26.5955V24.1921C11.3345 23.785 11.6648 23.4549 12.0721 23.4549H14.4766C14.8839 23.4549 15.2142 23.785 15.2142 24.1921V26.5955C15.2142 27.0026 14.8839 27.3327 14.4766 27.3327Z" fill="#75E8E7"/>
<path d="M14.4764 27.6861H12.0718C11.4703 27.6861 10.981 27.197 10.981 26.5958V24.1921C10.981 23.5909 11.4703 23.1018 12.0718 23.1018H14.4764C15.0781 23.1018 15.5675 23.5909 15.5675 24.1921V26.5955C15.5675 27.197 15.0781 27.6861 14.4764 27.6861ZM12.0718 23.8086C11.8602 23.8086 11.6881 23.9806 11.6881 24.1921V26.5955C11.6881 26.8071 11.8602 26.9791 12.0718 26.9791H14.4764C14.688 26.9791 14.8603 26.8071 14.8603 26.5955V24.1921C14.8603 23.9806 14.6883 23.8086 14.4764 23.8086H12.0718Z" fill="black"/>
<path d="M14.4766 33.3432H12.0721C11.6648 33.3432 11.3345 33.0131 11.3345 32.606V30.2026C11.3345 29.7955 11.6648 29.4654 12.0721 29.4654H14.4766C14.8839 29.4654 15.2142 29.7955 15.2142 30.2026V32.606C15.2142 33.0131 14.8839 33.3432 14.4766 33.3432Z" fill="#75E8E7"/>
<path d="M14.4764 33.6966H12.0718C11.4703 33.6966 10.981 33.2072 10.981 32.606V30.2026C10.981 29.6013 11.4703 29.1122 12.0718 29.1122H14.4764C15.0781 29.1122 15.5675 29.6013 15.5675 30.2026V32.606C15.5675 33.2072 15.0781 33.6966 14.4764 33.6966ZM12.0718 29.8188C11.8602 29.8188 11.6881 29.9908 11.6881 30.2023V32.6057C11.6881 32.8173 11.8602 32.9895 12.0718 32.9895H14.4764C14.688 32.9895 14.8603 32.8173 14.8603 32.6057V30.2026C14.8603 29.991 14.6883 29.819 14.4764 29.819H12.0718V29.8188Z" fill="black"/>
<path d="M14.4766 39.3534H12.0721C11.6648 39.3534 11.3345 39.0233 11.3345 38.6162V36.2128C11.3345 35.8057 11.6648 35.4756 12.0721 35.4756H14.4766C14.8839 35.4756 15.2142 35.8057 15.2142 36.2128V38.6162C15.2142 39.0233 14.8839 39.3534 14.4766 39.3534Z" fill="#75E8E7"/>
<path d="M14.4764 39.7068H12.0718C11.4703 39.7068 10.981 39.2177 10.981 38.6164V36.2128C10.981 35.6115 11.4703 35.1222 12.0718 35.1222H14.4764C15.0781 35.1222 15.5675 35.6115 15.5675 36.2128V38.6162C15.5675 39.2177 15.0781 39.7068 14.4764 39.7068ZM12.0718 35.8292C11.8602 35.8292 11.6881 36.0015 11.6881 36.213V38.6164C11.6881 38.828 11.8602 39 12.0718 39H14.4764C14.688 39 14.8603 38.828 14.8603 38.6164V36.2128C14.8603 36.0012 14.6883 35.829 14.4764 35.829H12.0718V35.8292Z" fill="black"/>
<path d="M48.2713 15.312H45.8668C45.4595 15.312 45.1292 14.982 45.1292 14.5749V12.1717C45.1292 11.7646 45.4595 11.4345 45.8668 11.4345H48.2713C48.6786 11.4345 49.0088 11.7646 49.0088 12.1717V14.5751C49.0086 14.9822 48.6786 15.312 48.2713 15.312Z" fill="#75E8E7"/>
<path d="M48.2712 15.6655H45.8667C45.2649 15.6655 44.7756 15.1761 44.7756 14.5749V12.1715C44.7756 11.5702 45.2649 11.0811 45.8667 11.0811H48.2712C48.8728 11.0811 49.3621 11.5702 49.3621 12.1715V14.5751C49.3621 15.1764 48.8728 15.6655 48.2712 15.6655ZM45.8667 11.7879C45.6548 11.7879 45.4827 11.9599 45.4827 12.1715V14.5751C45.4827 14.7867 45.6548 14.9589 45.8667 14.9589H48.2712C48.4827 14.9589 48.655 14.7867 48.655 14.5751V12.1715C48.655 11.9599 48.4829 11.7879 48.2712 11.7879H45.8667Z" fill="black"/>
<path d="M48.2713 21.3225H45.8668C45.4595 21.3225 45.1292 20.9924 45.1292 20.5853V18.1819C45.1292 17.7748 45.4595 17.4447 45.8668 17.4447H48.2713C48.6786 17.4447 49.0088 17.7748 49.0088 18.1819V20.5853C49.0086 20.9924 48.6786 21.3225 48.2713 21.3225Z" fill="#75E8E7"/>
<path d="M48.2712 21.6759H45.8667C45.2649 21.6759 44.7756 21.1868 44.7756 20.5853V18.1819C44.7756 17.5807 45.2649 17.0913 45.8667 17.0913H48.2712C48.8728 17.0913 49.3621 17.5807 49.3621 18.1819V20.5853C49.3621 21.1868 48.8728 21.6759 48.2712 21.6759ZM45.8667 17.7981C45.6548 17.7981 45.4827 17.9704 45.4827 18.1819V20.5853C45.4827 20.7969 45.6548 20.9691 45.8667 20.9691H48.2712C48.4827 20.9691 48.655 20.7969 48.655 20.5853V18.1819C48.655 17.9704 48.4829 17.7981 48.2712 17.7981H45.8667V17.7981Z" fill="black"/>
<path d="M48.2713 27.3327H45.8668C45.4595 27.3327 45.1292 27.0026 45.1292 26.5955V24.1921C45.1292 23.785 45.4595 23.4549 45.8668 23.4549H48.2713C48.6786 23.4549 49.0088 23.785 49.0088 24.1921V26.5955C49.0086 27.0026 48.6786 27.3327 48.2713 27.3327Z" fill="#75E8E7"/>
<path d="M48.2712 27.6861H45.8667C45.2649 27.6861 44.7756 27.197 44.7756 26.5958V24.1921C44.7756 23.5909 45.2649 23.1018 45.8667 23.1018H48.2712C48.8728 23.1018 49.3621 23.5909 49.3621 24.1921V26.5955C49.3621 27.197 48.8728 27.6861 48.2712 27.6861ZM45.8667 23.8086C45.6548 23.8086 45.4827 23.9806 45.4827 24.1921V26.5955C45.4827 26.8071 45.6548 26.9791 45.8667 26.9791H48.2712C48.4827 26.9791 48.655 26.8071 48.655 26.5955V24.1921C48.655 23.9806 48.4829 23.8086 48.2712 23.8086H45.8667Z" fill="black"/>
<path d="M48.2713 33.3432H45.8668C45.4595 33.3432 45.1292 33.0131 45.1292 32.606V30.2026C45.1292 29.7955 45.4595 29.4654 45.8668 29.4654H48.2713C48.6786 29.4654 49.0088 29.7955 49.0088 30.2026V32.606C49.0086 33.0131 48.6786 33.3432 48.2713 33.3432Z" fill="#75E8E7"/>
<path d="M48.2712 33.6966H45.8667C45.2649 33.6966 44.7756 33.2072 44.7756 32.606V30.2026C44.7756 29.6013 45.2649 29.1122 45.8667 29.1122H48.2712C48.8728 29.1122 49.3621 29.6013 49.3621 30.2026V32.606C49.3621 33.2072 48.8728 33.6966 48.2712 33.6966ZM45.8667 29.8188C45.6548 29.8188 45.4827 29.9908 45.4827 30.2023V32.6057C45.4827 32.8173 45.6548 32.9895 45.8667 32.9895H48.2712C48.4827 32.9895 48.655 32.8173 48.655 32.6057V30.2026C48.655 29.991 48.4829 29.819 48.2712 29.819H45.8667V29.8188Z" fill="black"/>
<path d="M48.2713 39.3534H45.8668C45.4595 39.3534 45.1292 39.0233 45.1292 38.6162V36.2128C45.1292 35.8057 45.4595 35.4756 45.8668 35.4756H48.2713C48.6786 35.4756 49.0088 35.8057 49.0088 36.2128V38.6162C49.0086 39.0233 48.6786 39.3534 48.2713 39.3534Z" fill="#75E8E7"/>
<path d="M48.2712 39.7068H45.8667C45.2649 39.7068 44.7756 39.2177 44.7756 38.6164V36.2128C44.7756 35.6115 45.2649 35.1222 45.8667 35.1222H48.2712C48.8728 35.1222 49.3621 35.6115 49.3621 36.2128V38.6162C49.3621 39.2177 48.8728 39.7068 48.2712 39.7068ZM45.8667 35.8292C45.6548 35.8292 45.4827 36.0015 45.4827 36.213V38.6164C45.4827 38.828 45.6548 39 45.8667 39H48.2712C48.4827 39 48.655 38.828 48.655 38.6164V36.2128C48.655 36.0012 48.4829 35.829 48.2712 35.829H45.8667V35.8292Z" fill="black"/>
</svg>
